<mxfile host="Electron" agent="Mozilla/5.0 (X11; Linux x86_64) AppleWebKit/537.36 (KHTML, like Gecko) draw.io/26.0.9 Chrome/128.0.6613.186 Electron/32.3.1 Safari/537.36" version="26.0.9">
  <diagram name="Page-1" id="YHBKYviWMnUJeCqdUI6N">
    <mxGraphModel dx="1207" dy="844" grid="1" gridSize="10" guides="1" tooltips="1" connect="1" arrows="1" fold="1" page="1" pageScale="1" pageWidth="1600" pageHeight="900" math="0" shadow="0" adaptiveColors="none">
      <root>
        <mxCell id="0" />
        <mxCell id="1" parent="0" />
        <mxCell id="6rUPO-moEBOhUERDmNMA-1" value="" style="rounded=0;whiteSpace=wrap;html=1;movable=0;resizable=0;rotatable=0;deletable=0;editable=0;locked=1;connectable=0;strokeWidth=1;perimeterSpacing=0;shadow=1;glass=0;fillColor=#FAE5C7;strokeColor=#0F8B8D;fontColor=#143642;fillStyle=auto;labelBackgroundColor=none;sketch=1;curveFitting=1;jiggle=2;" parent="1" vertex="1">
          <mxGeometry x="80" y="40" width="960" height="540" as="geometry" />
        </mxCell>
        <mxCell id="Kli5g-zVKuXx6SAsKVRO-47" value="" style="group;labelBackgroundColor=none;fontColor=#143642;sketch=1;curveFitting=1;jiggle=2;" parent="1" vertex="1" connectable="0">
          <mxGeometry x="80" y="40" width="250" height="540" as="geometry" />
        </mxCell>
        <mxCell id="Kli5g-zVKuXx6SAsKVRO-45" value="" style="rounded=0;whiteSpace=wrap;html=1;shadow=0;dashed=0;strokeColor=#0F8B8D;strokeWidth=2;align=center;verticalAlign=top;fontFamily=Helvetica;fontSize=12;fontColor=#143642;fillColor=#FAE5C7;labelBackgroundColor=none;sketch=1;curveFitting=1;jiggle=2;" parent="Kli5g-zVKuXx6SAsKVRO-47" vertex="1">
          <mxGeometry width="190" height="540" as="geometry" />
        </mxCell>
        <mxCell id="Kli5g-zVKuXx6SAsKVRO-46" value="&lt;h1&gt;&lt;font&gt;Sidebar&lt;/font&gt;&lt;/h1&gt;" style="rounded=1;whiteSpace=wrap;html=1;shadow=0;dashed=0;strokeColor=#82b366;strokeWidth=1;align=center;verticalAlign=middle;fontFamily=Architects Daughter;fontSize=21;fillColor=#d5e8d4;labelBackgroundColor=none;sketch=1;curveFitting=1;jiggle=2;hachureGap=4;spacingLeft=4;spacingTop=-2;spacing=2;arcSize=20;fontSource=https%3A%2F%2Ffonts.googleapis.com%2Fcss%3Ffamily%3DArchitects%2BDaughter;fontStyle=1;autosize=1;movable=0;resizable=0;rotatable=0;deletable=0;editable=0;locked=1;connectable=0;" parent="Kli5g-zVKuXx6SAsKVRO-47" vertex="1">
          <mxGeometry width="190" height="90" as="geometry" />
        </mxCell>
        <mxCell id="Kli5g-zVKuXx6SAsKVRO-9" value="" style="swimlane;fontStyle=0;childLayout=stackLayout;horizontal=1;startSize=0;horizontalStack=0;resizeParent=1;resizeParentMax=0;resizeLast=0;collapsible=0;marginBottom=0;whiteSpace=wrap;html=1;strokeColor=none;fillColor=none;shadow=0;dashed=0;strokeWidth=2;align=center;verticalAlign=top;fontFamily=Helvetica;fontSize=12;fontColor=#143642;labelBackgroundColor=none;sketch=1;curveFitting=1;jiggle=2;movable=1;resizable=1;rotatable=1;deletable=1;editable=1;locked=0;connectable=1;" parent="Kli5g-zVKuXx6SAsKVRO-47" vertex="1">
          <mxGeometry x="10" y="150" width="170" height="360" as="geometry" />
        </mxCell>
        <mxCell id="Kli5g-zVKuXx6SAsKVRO-10" value="Create New" style="text;strokeColor=#0F8B8D;fillColor=#FAE5C7;align=left;verticalAlign=middle;spacingLeft=50;spacingRight=10;overflow=hidden;points=[[0,0.5],[1,0.5]];portConstraint=eastwest;rotatable=0;whiteSpace=wrap;html=1;shape=mxgraph.bootstrap.topButton;rSize=5;fontColor=default;fontFamily=Architects Daughter;fontSize=14;labelBackgroundColor=none;sketch=1;curveFitting=1;jiggle=2;fontSource=https%3A%2F%2Ffonts.googleapis.com%2Fcss%3Ffamily%3DArchitects%2BDaughter;fontStyle=0;autosize=1;" parent="Kli5g-zVKuXx6SAsKVRO-9" vertex="1">
          <mxGeometry width="170" height="40" as="geometry" />
        </mxCell>
        <mxCell id="Kli5g-zVKuXx6SAsKVRO-14" value="Profile 1" style="text;strokeColor=#b46504;fillColor=#fad7ac;align=left;verticalAlign=middle;spacingLeft=50;spacingRight=10;overflow=hidden;points=[[0,0.5],[1,0.5]];portConstraint=eastwest;rotatable=0;whiteSpace=wrap;html=1;rSize=5;fontFamily=Architects Daughter;fontSize=14;labelBackgroundColor=none;sketch=1;curveFitting=1;jiggle=2;fontSource=https%3A%2F%2Ffonts.googleapis.com%2Fcss%3Ffamily%3DArchitects%2BDaughter;fontStyle=1;autosize=1;fontColor=default;strokeWidth=2;" parent="Kli5g-zVKuXx6SAsKVRO-9" vertex="1">
          <mxGeometry y="40" width="170" height="40" as="geometry" />
        </mxCell>
        <mxCell id="Kli5g-zVKuXx6SAsKVRO-11" value="Profile 2" style="text;strokeColor=#0F8B8D;fillColor=#FAE5C7;align=left;verticalAlign=middle;spacingLeft=50;spacingRight=10;overflow=hidden;points=[[0,0.5],[1,0.5]];portConstraint=eastwest;rotatable=0;whiteSpace=wrap;html=1;rSize=5;fontColor=default;fontFamily=Architects Daughter;fontSize=14;labelBackgroundColor=none;sketch=1;curveFitting=1;jiggle=2;fontSource=https%3A%2F%2Ffonts.googleapis.com%2Fcss%3Ffamily%3DArchitects%2BDaughter;fontStyle=0;autosize=1;" parent="Kli5g-zVKuXx6SAsKVRO-9" vertex="1">
          <mxGeometry y="80" width="170" height="40" as="geometry" />
        </mxCell>
        <mxCell id="Kli5g-zVKuXx6SAsKVRO-12" value="Profile 3" style="text;strokeColor=#0F8B8D;fillColor=#FAE5C7;align=left;verticalAlign=middle;spacingLeft=50;spacingRight=10;overflow=hidden;points=[[0,0.5],[1,0.5]];portConstraint=eastwest;rotatable=0;whiteSpace=wrap;html=1;rSize=5;fontColor=default;fontFamily=Architects Daughter;fontSize=14;labelBackgroundColor=none;sketch=1;curveFitting=1;jiggle=2;fontSource=https%3A%2F%2Ffonts.googleapis.com%2Fcss%3Ffamily%3DArchitects%2BDaughter;fontStyle=0;autosize=1;" parent="Kli5g-zVKuXx6SAsKVRO-9" vertex="1">
          <mxGeometry y="120" width="170" height="40" as="geometry" />
        </mxCell>
        <mxCell id="Kli5g-zVKuXx6SAsKVRO-16" value="Profile 4" style="text;strokeColor=#0F8B8D;fillColor=#FAE5C7;align=left;verticalAlign=middle;spacingLeft=50;spacingRight=10;overflow=hidden;points=[[0,0.5],[1,0.5]];portConstraint=eastwest;rotatable=0;whiteSpace=wrap;html=1;rSize=5;fontColor=default;fontFamily=Architects Daughter;fontSize=14;labelBackgroundColor=none;sketch=1;curveFitting=1;jiggle=2;fontSource=https%3A%2F%2Ffonts.googleapis.com%2Fcss%3Ffamily%3DArchitects%2BDaughter;fontStyle=0;autosize=1;" parent="Kli5g-zVKuXx6SAsKVRO-9" vertex="1">
          <mxGeometry y="160" width="170" height="40" as="geometry" />
        </mxCell>
        <mxCell id="Kli5g-zVKuXx6SAsKVRO-17" value="Profile 5" style="text;strokeColor=#0F8B8D;fillColor=#FAE5C7;align=left;verticalAlign=middle;spacingLeft=50;spacingRight=10;overflow=hidden;points=[[0,0.5],[1,0.5]];portConstraint=eastwest;rotatable=0;whiteSpace=wrap;html=1;rSize=5;fontColor=default;fontFamily=Architects Daughter;fontSize=14;labelBackgroundColor=none;sketch=1;curveFitting=1;jiggle=2;fontSource=https%3A%2F%2Ffonts.googleapis.com%2Fcss%3Ffamily%3DArchitects%2BDaughter;fontStyle=0;autosize=1;" parent="Kli5g-zVKuXx6SAsKVRO-9" vertex="1">
          <mxGeometry y="200" width="170" height="40" as="geometry" />
        </mxCell>
        <mxCell id="Kli5g-zVKuXx6SAsKVRO-18" value="Profile 6" style="text;strokeColor=#0F8B8D;fillColor=#FAE5C7;align=left;verticalAlign=middle;spacingLeft=50;spacingRight=10;overflow=hidden;points=[[0,0.5],[1,0.5]];portConstraint=eastwest;rotatable=0;whiteSpace=wrap;html=1;rSize=5;fontColor=default;fontFamily=Architects Daughter;fontSize=14;labelBackgroundColor=none;sketch=1;curveFitting=1;jiggle=2;fontSource=https%3A%2F%2Ffonts.googleapis.com%2Fcss%3Ffamily%3DArchitects%2BDaughter;fontStyle=0;autosize=1;" parent="Kli5g-zVKuXx6SAsKVRO-9" vertex="1">
          <mxGeometry y="240" width="170" height="40" as="geometry" />
        </mxCell>
        <mxCell id="Kli5g-zVKuXx6SAsKVRO-15" value="Profile 7" style="text;strokeColor=#0F8B8D;fillColor=#FAE5C7;align=left;verticalAlign=middle;spacingLeft=50;spacingRight=10;overflow=hidden;points=[[0,0.5],[1,0.5]];portConstraint=eastwest;rotatable=0;whiteSpace=wrap;html=1;rSize=5;fontColor=default;fontFamily=Architects Daughter;fontSize=14;labelBackgroundColor=none;sketch=1;curveFitting=1;jiggle=2;fontSource=https%3A%2F%2Ffonts.googleapis.com%2Fcss%3Ffamily%3DArchitects%2BDaughter;fontStyle=0;autosize=1;" parent="Kli5g-zVKuXx6SAsKVRO-9" vertex="1">
          <mxGeometry y="280" width="170" height="40" as="geometry" />
        </mxCell>
        <mxCell id="Kli5g-zVKuXx6SAsKVRO-13" value="Profile 8" style="text;strokeColor=#0F8B8D;fillColor=#FAE5C7;align=left;verticalAlign=middle;spacingLeft=50;spacingRight=10;overflow=hidden;points=[[0,0.5],[1,0.5]];portConstraint=eastwest;rotatable=0;whiteSpace=wrap;html=1;shape=mxgraph.bootstrap.bottomButton;rSize=5;fontColor=default;fontFamily=Architects Daughter;fontSize=14;labelBackgroundColor=none;sketch=1;curveFitting=1;jiggle=2;fontSource=https%3A%2F%2Ffonts.googleapis.com%2Fcss%3Ffamily%3DArchitects%2BDaughter;fontStyle=0;autosize=1;" parent="Kli5g-zVKuXx6SAsKVRO-9" vertex="1">
          <mxGeometry y="320" width="170" height="40" as="geometry" />
        </mxCell>
        <mxCell id="Kli5g-zVKuXx6SAsKVRO-76" value="" style="shape=ellipse;dashed=0;strokeColor=none;shadow=0;fontSize=13;align=center;verticalAlign=top;labelPosition=center;verticalLabelPosition=bottom;html=1;aspect=fixed;sketch=1;hachureGap=4;jiggle=2;curveFitting=1;fontFamily=Architects Daughter;fontSource=https%3A%2F%2Ffonts.googleapis.com%2Fcss%3Ffamily%3DArchitects%2BDaughter;labelBackgroundColor=none;fillColor=#FAE5C7;fontColor=#143642;fillStyle=hachure;" parent="Kli5g-zVKuXx6SAsKVRO-47" vertex="1">
          <mxGeometry x="10" y="190" width="40" height="40" as="geometry" />
        </mxCell>
        <mxCell id="Kli5g-zVKuXx6SAsKVRO-77" value="" style="dashed=0;html=1;shape=mxgraph.gmdl.users;strokeColor=#b46504;fillColor=#fad7ac;strokeWidth=2;shadow=0;sketch=0;html=1;labelPosition=center;verticalLabelPosition=bottom;align=center;verticalAlign=top;hachureGap=4;jiggle=2;curveFitting=1;fontFamily=Architects Daughter;fontSource=https%3A%2F%2Ffonts.googleapis.com%2Fcss%3Ffamily%3DArchitects%2BDaughter;labelBackgroundColor=none;" parent="Kli5g-zVKuXx6SAsKVRO-76" vertex="1">
          <mxGeometry x="12.857142857142856" y="14.285714285714285" width="17.142857142857142" height="11.428571428571427" as="geometry" />
        </mxCell>
        <mxCell id="Kli5g-zVKuXx6SAsKVRO-80" value="" style="shape=ellipse;dashed=0;strokeColor=none;shadow=1;fontSize=13;align=center;verticalAlign=top;labelPosition=center;verticalLabelPosition=bottom;html=1;aspect=fixed;sketch=1;hachureGap=4;jiggle=2;curveFitting=1;fontFamily=Architects Daughter;fontSource=https%3A%2F%2Ffonts.googleapis.com%2Fcss%3Ffamily%3DArchitects%2BDaughter;labelBackgroundColor=none;fillColor=#FAE5C7;fontColor=#143642;" parent="Kli5g-zVKuXx6SAsKVRO-47" vertex="1">
          <mxGeometry x="10" y="230" width="40" height="40" as="geometry" />
        </mxCell>
        <mxCell id="Kli5g-zVKuXx6SAsKVRO-81" value="" style="dashed=0;html=1;shape=mxgraph.gmdl.users;strokeColor=#0F8B8D;fillColor=#FAE5C7;strokeWidth=2;shadow=0;sketch=0;html=1;labelPosition=center;verticalLabelPosition=bottom;align=center;verticalAlign=top;hachureGap=4;jiggle=2;curveFitting=1;fontFamily=Architects Daughter;fontSource=https%3A%2F%2Ffonts.googleapis.com%2Fcss%3Ffamily%3DArchitects%2BDaughter;labelBackgroundColor=none;fontColor=#143642;" parent="Kli5g-zVKuXx6SAsKVRO-80" vertex="1">
          <mxGeometry x="12.857142857142856" y="14.285714285714285" width="17.142857142857142" height="11.428571428571427" as="geometry" />
        </mxCell>
        <mxCell id="Kli5g-zVKuXx6SAsKVRO-82" value="" style="shape=ellipse;dashed=0;strokeColor=none;shadow=1;fontSize=13;align=center;verticalAlign=top;labelPosition=center;verticalLabelPosition=bottom;html=1;aspect=fixed;sketch=1;hachureGap=4;jiggle=2;curveFitting=1;fontFamily=Architects Daughter;fontSource=https%3A%2F%2Ffonts.googleapis.com%2Fcss%3Ffamily%3DArchitects%2BDaughter;labelBackgroundColor=none;fillColor=#FAE5C7;fontColor=#143642;" parent="Kli5g-zVKuXx6SAsKVRO-47" vertex="1">
          <mxGeometry x="10" y="270" width="40" height="40" as="geometry" />
        </mxCell>
        <mxCell id="Kli5g-zVKuXx6SAsKVRO-83" value="" style="dashed=0;html=1;shape=mxgraph.gmdl.users;strokeColor=#0F8B8D;fillColor=#FAE5C7;strokeWidth=2;shadow=0;sketch=0;html=1;labelPosition=center;verticalLabelPosition=bottom;align=center;verticalAlign=top;hachureGap=4;jiggle=2;curveFitting=1;fontFamily=Architects Daughter;fontSource=https%3A%2F%2Ffonts.googleapis.com%2Fcss%3Ffamily%3DArchitects%2BDaughter;labelBackgroundColor=none;fontColor=#143642;" parent="Kli5g-zVKuXx6SAsKVRO-82" vertex="1">
          <mxGeometry x="12.857142857142856" y="14.285714285714285" width="17.142857142857142" height="11.428571428571427" as="geometry" />
        </mxCell>
        <mxCell id="Kli5g-zVKuXx6SAsKVRO-84" value="" style="shape=ellipse;dashed=0;strokeColor=none;shadow=1;fontSize=13;align=center;verticalAlign=top;labelPosition=center;verticalLabelPosition=bottom;html=1;aspect=fixed;sketch=1;hachureGap=4;jiggle=2;curveFitting=1;fontFamily=Architects Daughter;fontSource=https%3A%2F%2Ffonts.googleapis.com%2Fcss%3Ffamily%3DArchitects%2BDaughter;labelBackgroundColor=none;fillColor=#FAE5C7;fontColor=#143642;" parent="Kli5g-zVKuXx6SAsKVRO-47" vertex="1">
          <mxGeometry x="10" y="310" width="40" height="40" as="geometry" />
        </mxCell>
        <mxCell id="Kli5g-zVKuXx6SAsKVRO-85" value="" style="dashed=0;html=1;shape=mxgraph.gmdl.users;strokeColor=#0F8B8D;fillColor=#FAE5C7;strokeWidth=2;shadow=0;sketch=0;html=1;labelPosition=center;verticalLabelPosition=bottom;align=center;verticalAlign=top;hachureGap=4;jiggle=2;curveFitting=1;fontFamily=Architects Daughter;fontSource=https%3A%2F%2Ffonts.googleapis.com%2Fcss%3Ffamily%3DArchitects%2BDaughter;labelBackgroundColor=none;fontColor=#143642;" parent="Kli5g-zVKuXx6SAsKVRO-84" vertex="1">
          <mxGeometry x="12.857142857142856" y="14.285714285714285" width="17.142857142857142" height="11.428571428571427" as="geometry" />
        </mxCell>
        <mxCell id="Kli5g-zVKuXx6SAsKVRO-86" value="" style="shape=ellipse;dashed=0;strokeColor=none;shadow=1;fontSize=13;align=center;verticalAlign=top;labelPosition=center;verticalLabelPosition=bottom;html=1;aspect=fixed;sketch=1;hachureGap=4;jiggle=2;curveFitting=1;fontFamily=Architects Daughter;fontSource=https%3A%2F%2Ffonts.googleapis.com%2Fcss%3Ffamily%3DArchitects%2BDaughter;labelBackgroundColor=none;fillColor=#FAE5C7;fontColor=#143642;" parent="Kli5g-zVKuXx6SAsKVRO-47" vertex="1">
          <mxGeometry x="10" y="350" width="40" height="40" as="geometry" />
        </mxCell>
        <mxCell id="Kli5g-zVKuXx6SAsKVRO-87" value="" style="dashed=0;html=1;shape=mxgraph.gmdl.users;strokeColor=#0F8B8D;fillColor=#FAE5C7;strokeWidth=2;shadow=0;sketch=0;html=1;labelPosition=center;verticalLabelPosition=bottom;align=center;verticalAlign=top;hachureGap=4;jiggle=2;curveFitting=1;fontFamily=Architects Daughter;fontSource=https%3A%2F%2Ffonts.googleapis.com%2Fcss%3Ffamily%3DArchitects%2BDaughter;labelBackgroundColor=none;fontColor=#143642;" parent="Kli5g-zVKuXx6SAsKVRO-86" vertex="1">
          <mxGeometry x="12.857142857142856" y="14.285714285714285" width="17.142857142857142" height="11.428571428571427" as="geometry" />
        </mxCell>
        <mxCell id="Kli5g-zVKuXx6SAsKVRO-88" value="" style="shape=ellipse;dashed=0;strokeColor=none;shadow=1;fontSize=13;align=center;verticalAlign=top;labelPosition=center;verticalLabelPosition=bottom;html=1;aspect=fixed;sketch=1;hachureGap=4;jiggle=2;curveFitting=1;fontFamily=Architects Daughter;fontSource=https%3A%2F%2Ffonts.googleapis.com%2Fcss%3Ffamily%3DArchitects%2BDaughter;labelBackgroundColor=none;fillColor=#FAE5C7;fontColor=#143642;" parent="Kli5g-zVKuXx6SAsKVRO-47" vertex="1">
          <mxGeometry x="10" y="390" width="40" height="40" as="geometry" />
        </mxCell>
        <mxCell id="Kli5g-zVKuXx6SAsKVRO-89" value="" style="dashed=0;html=1;shape=mxgraph.gmdl.users;strokeColor=#0F8B8D;fillColor=#FAE5C7;strokeWidth=2;shadow=0;sketch=0;html=1;labelPosition=center;verticalLabelPosition=bottom;align=center;verticalAlign=top;hachureGap=4;jiggle=2;curveFitting=1;fontFamily=Architects Daughter;fontSource=https%3A%2F%2Ffonts.googleapis.com%2Fcss%3Ffamily%3DArchitects%2BDaughter;labelBackgroundColor=none;fontColor=#143642;" parent="Kli5g-zVKuXx6SAsKVRO-88" vertex="1">
          <mxGeometry x="12.857142857142856" y="14.285714285714285" width="17.142857142857142" height="11.428571428571427" as="geometry" />
        </mxCell>
        <mxCell id="Kli5g-zVKuXx6SAsKVRO-90" value="" style="shape=ellipse;dashed=0;strokeColor=none;shadow=1;fontSize=13;align=center;verticalAlign=top;labelPosition=center;verticalLabelPosition=bottom;html=1;aspect=fixed;sketch=1;hachureGap=4;jiggle=2;curveFitting=1;fontFamily=Architects Daughter;fontSource=https%3A%2F%2Ffonts.googleapis.com%2Fcss%3Ffamily%3DArchitects%2BDaughter;labelBackgroundColor=none;fillColor=#FAE5C7;fontColor=#143642;" parent="Kli5g-zVKuXx6SAsKVRO-47" vertex="1">
          <mxGeometry x="10" y="430" width="40" height="40" as="geometry" />
        </mxCell>
        <mxCell id="Kli5g-zVKuXx6SAsKVRO-91" value="" style="dashed=0;html=1;shape=mxgraph.gmdl.users;strokeColor=#0F8B8D;fillColor=#FAE5C7;strokeWidth=2;shadow=0;sketch=0;html=1;labelPosition=center;verticalLabelPosition=bottom;align=center;verticalAlign=top;hachureGap=4;jiggle=2;curveFitting=1;fontFamily=Architects Daughter;fontSource=https%3A%2F%2Ffonts.googleapis.com%2Fcss%3Ffamily%3DArchitects%2BDaughter;labelBackgroundColor=none;fontColor=#143642;" parent="Kli5g-zVKuXx6SAsKVRO-90" vertex="1">
          <mxGeometry x="12.857142857142856" y="14.285714285714285" width="17.142857142857142" height="11.428571428571427" as="geometry" />
        </mxCell>
        <mxCell id="Kli5g-zVKuXx6SAsKVRO-92" value="" style="shape=ellipse;dashed=0;strokeColor=none;shadow=1;fontSize=13;align=center;verticalAlign=top;labelPosition=center;verticalLabelPosition=bottom;html=1;aspect=fixed;sketch=1;hachureGap=4;jiggle=2;curveFitting=1;fontFamily=Architects Daughter;fontSource=https%3A%2F%2Ffonts.googleapis.com%2Fcss%3Ffamily%3DArchitects%2BDaughter;labelBackgroundColor=none;fillColor=#FAE5C7;fontColor=#143642;" parent="Kli5g-zVKuXx6SAsKVRO-47" vertex="1">
          <mxGeometry x="10" y="470" width="40" height="40" as="geometry" />
        </mxCell>
        <mxCell id="Kli5g-zVKuXx6SAsKVRO-93" value="" style="dashed=0;html=1;shape=mxgraph.gmdl.users;strokeColor=#0F8B8D;fillColor=#FAE5C7;strokeWidth=2;shadow=0;sketch=0;html=1;labelPosition=center;verticalLabelPosition=bottom;align=center;verticalAlign=top;hachureGap=4;jiggle=2;curveFitting=1;fontFamily=Architects Daughter;fontSource=https%3A%2F%2Ffonts.googleapis.com%2Fcss%3Ffamily%3DArchitects%2BDaughter;labelBackgroundColor=none;fontColor=#143642;" parent="Kli5g-zVKuXx6SAsKVRO-92" vertex="1">
          <mxGeometry x="12.857142857142856" y="14.285714285714285" width="17.142857142857142" height="11.428571428571427" as="geometry" />
        </mxCell>
        <mxCell id="Kli5g-zVKuXx6SAsKVRO-97" value="Job Profile List" style="html=1;shadow=0;dashed=0;shape=mxgraph.bootstrap.rrect;rSize=5;strokeColor=none;strokeWidth=1;fillColor=#F8F9FA;fontColor=#000000;whiteSpace=wrap;align=center;verticalAlign=middle;spacingLeft=0;fontStyle=1;fontSize=16;spacing=5;sketch=1;jiggle=2;curveFitting=1;spacingRight=10;fontFamily=Architects Daughter;fontSource=https%3A%2F%2Ffonts.googleapis.com%2Fcss%3Ffamily%3DArchitects%2BDaughter;labelBackgroundColor=none;autosize=1;movable=0;resizable=0;rotatable=0;deletable=0;editable=0;locked=1;connectable=0;" parent="Kli5g-zVKuXx6SAsKVRO-47" vertex="1">
          <mxGeometry x="20" y="100" width="150" height="40" as="geometry" />
        </mxCell>
        <mxCell id="Kli5g-zVKuXx6SAsKVRO-53" value="" style="shape=ellipse;shadow=0;aspect=fixed;html=1;labelPosition=center;verticalLabelPosition=bottom;align=left;verticalAlign=middle;dashed=0;strokeWidth=2;fontFamily=Architects Daughter;fontSize=14;fontStyle=0;fillColor=#FAE5C7;fillStyle=auto;labelBackgroundColor=none;strokeColor=#0F8B8D;sketch=1;curveFitting=1;jiggle=2;fontColor=default;resizable=1;spacingLeft=50;spacingRight=10;fontSource=https%3A%2F%2Ffonts.googleapis.com%2Fcss%3Ffamily%3DArchitects%2BDaughter;autosize=1;gradientColor=none;" parent="1" vertex="1">
          <mxGeometry x="100" y="200" width="24" height="24" as="geometry" />
        </mxCell>
        <mxCell id="Kli5g-zVKuXx6SAsKVRO-54" value="" style="dashed=0;html=1;shape=mxgraph.gmdl.plus;strokeColor=#0F8B8D;strokeWidth=2;shadow=0;align=left;verticalAlign=middle;fontFamily=Architects Daughter;fontSize=14;fontStyle=0;fillColor=#FAE5C7;labelBackgroundColor=none;sketch=1;curveFitting=1;jiggle=2;fontColor=default;resizable=1;spacingLeft=50;spacingRight=10;fontSource=https%3A%2F%2Ffonts.googleapis.com%2Fcss%3Ffamily%3DArchitects%2BDaughter;autosize=1;gradientColor=none;" parent="Kli5g-zVKuXx6SAsKVRO-53" vertex="1">
          <mxGeometry x="8.57142857142857" y="8.57142857142857" width="6.857142857142856" height="6.857142857142856" as="geometry" />
        </mxCell>
        <mxCell id="Kli5g-zVKuXx6SAsKVRO-95" value="" style="shape=mxgraph.mockup.containers.marginRect;rectMarginTop=10;strokeColor=#666666;strokeWidth=1;dashed=0;rounded=1;arcSize=5;recursiveResize=0;html=1;whiteSpace=wrap;sketch=1;hachureGap=4;jiggle=2;curveFitting=1;fontFamily=Architects Daughter;fontSource=https%3A%2F%2Ffonts.googleapis.com%2Fcss%3Ffamily%3DArchitects%2BDaughter;fontColor=#143642;fillColor=#FAE5C7;align=left;movable=1;resizable=1;rotatable=1;deletable=1;editable=1;locked=0;connectable=1;" parent="1" vertex="1">
          <mxGeometry x="290" y="60" width="730" height="500" as="geometry" />
        </mxCell>
        <mxCell id="Kli5g-zVKuXx6SAsKVRO-96" value="Profile 1" style="shape=rect;strokeWidth=1;dashed=0;rounded=1;arcSize=20;fontSize=21;spacing=2;spacingTop=-2;align=left;autosize=1;spacingLeft=4;resizeWidth=0;resizeHeight=0;perimeter=none;html=1;whiteSpace=wrap;sketch=1;hachureGap=4;jiggle=2;curveFitting=1;fontFamily=Architects Daughter;fontSource=https%3A%2F%2Ffonts.googleapis.com%2Fcss%3Ffamily%3DArchitects%2BDaughter;fillColor=#fa6800;fontColor=#000000;strokeColor=#C73500;fontStyle=1;" parent="Kli5g-zVKuXx6SAsKVRO-95" vertex="1">
          <mxGeometry x="5" width="100" height="30" as="geometry" />
        </mxCell>
        <mxCell id="Kli5g-zVKuXx6SAsKVRO-137" value="&lt;font style=&quot;font-size: 14px;&quot;&gt;Edit Profile&lt;/font&gt;" style="labelPosition=center;verticalLabelPosition=middle;align=center;html=1;shape=mxgraph.basic.button;dx=10;whiteSpace=wrap;sketch=1;jiggle=2;curveFitting=1;strokeColor=#b46504;verticalAlign=middle;spacingLeft=10;spacingRight=10;fontFamily=Architects Daughter;fontSource=https%3A%2F%2Ffonts.googleapis.com%2Fcss%3Ffamily%3DArchitects%2BDaughter;fontSize=11;fontColor=default;fontStyle=0;labelBackgroundColor=none;autosize=1;fillColor=#fad7ac;gradientColor=none;movable=0;resizable=0;rotatable=0;deletable=0;editable=0;locked=1;connectable=0;" parent="Kli5g-zVKuXx6SAsKVRO-95" vertex="1">
          <mxGeometry x="580" y="430" width="100" height="50" as="geometry" />
        </mxCell>
        <mxCell id="3OpvZVdcIAY79V-IfnOn-1" value="&lt;font style=&quot;font-size: 14px;&quot;&gt;Delete Profile&lt;/font&gt;" style="labelPosition=center;verticalLabelPosition=middle;align=center;html=1;shape=mxgraph.basic.button;dx=10;whiteSpace=wrap;sketch=1;jiggle=2;curveFitting=1;strokeColor=#b46504;verticalAlign=middle;spacingLeft=10;spacingRight=10;fontFamily=Architects Daughter;fontSource=https%3A%2F%2Ffonts.googleapis.com%2Fcss%3Ffamily%3DArchitects%2BDaughter;fontSize=11;fontColor=default;fontStyle=0;labelBackgroundColor=none;autosize=1;fillColor=#fad7ac;gradientColor=none;hachureGap=4;" vertex="1" parent="Kli5g-zVKuXx6SAsKVRO-95">
          <mxGeometry x="450" y="430" width="100" height="50" as="geometry" />
        </mxCell>
        <mxCell id="d5cgYtf_v9CHug801hoq-138" value="" style="verticalLabelPosition=bottom;shadow=0;dashed=0;align=center;html=1;verticalAlign=top;strokeWidth=2;shape=mxgraph.mockup.navigation.scrollBar;barPos=14.306;fillColor2=#99ddff;strokeColor2=none;direction=north;sketch=1;jiggle=2;curveFitting=1;spacingLeft=10;spacingRight=10;fontFamily=Architects Daughter;fontSource=https%3A%2F%2Ffonts.googleapis.com%2Fcss%3Ffamily%3DArchitects%2BDaughter;fontSize=11;fontStyle=0;labelBackgroundColor=none;autosize=1;fillColor=#fad7ac;strokeColor=#b46504;" parent="1" vertex="1">
          <mxGeometry x="980" y="110" width="50" height="360" as="geometry" />
        </mxCell>
        <mxCell id="d5cgYtf_v9CHug801hoq-149" value="" style="rounded=0;whiteSpace=wrap;html=1;sketch=1;jiggle=2;curveFitting=1;strokeColor=#b46504;align=center;verticalAlign=middle;spacingLeft=10;spacingRight=10;fontFamily=Architects Daughter;fontSource=https%3A%2F%2Ffonts.googleapis.com%2Fcss%3Ffamily%3DArchitects%2BDaughter;fontSize=11;fontColor=default;fontStyle=0;labelBackgroundColor=none;autosize=1;fillColor=#fad7ac;gradientColor=none;movable=1;resizable=1;rotatable=1;deletable=1;editable=1;locked=0;connectable=1;" parent="1" vertex="1">
          <mxGeometry x="310" y="110" width="670" height="360" as="geometry" />
        </mxCell>
        <mxCell id="d5cgYtf_v9CHug801hoq-179" value="&lt;font style=&quot;font-size: 22px;&quot;&gt;&lt;b style=&quot;&quot;&gt;#&lt;/b&gt;&lt;/font&gt;" style="html=1;fillColor=#fad7ac;strokeColor=#b46504;fontSize=11;align=center;fontColor=default;whiteSpace=wrap;sketch=1;hachureGap=4;pointerEvents=0;fontFamily=Architects Daughter;fontSource=https%3A%2F%2Ffonts.googleapis.com%2Fcss%3Ffamily%3DArchitects%2BDaughter;jiggle=2;curveFitting=1;verticalAlign=middle;spacingLeft=10;spacingRight=10;fontStyle=0;labelBackgroundColor=none;autosize=1;gradientColor=none;" parent="1" vertex="1">
          <mxGeometry x="310" y="110" width="60" height="60" as="geometry" />
        </mxCell>
        <mxCell id="d5cgYtf_v9CHug801hoq-180" value="&lt;b&gt;&lt;font style=&quot;font-size: 16px;&quot;&gt;RS&lt;/font&gt;&lt;/b&gt;" style="html=1;fillColor=#fad7ac;strokeColor=#b46504;fontSize=11;align=center;fontColor=default;whiteSpace=wrap;sketch=1;hachureGap=4;pointerEvents=0;fontFamily=Architects Daughter;fontSource=https%3A%2F%2Ffonts.googleapis.com%2Fcss%3Ffamily%3DArchitects%2BDaughter;jiggle=2;curveFitting=1;verticalAlign=middle;spacingLeft=10;spacingRight=10;fontStyle=0;labelBackgroundColor=none;autosize=1;gradientColor=none;" parent="1" vertex="1">
          <mxGeometry x="370" y="110" width="60" height="60" as="geometry" />
        </mxCell>
        <mxCell id="d5cgYtf_v9CHug801hoq-216" value="&lt;font style=&quot;font-size: 16px;&quot;&gt;CV Name&lt;br&gt;&lt;span style=&quot;font-weight: normal;&quot;&gt;&lt;font color=&quot;#596780&quot;&gt;Relevant tags&lt;/font&gt;&lt;/span&gt;&lt;/font&gt;" style="html=1;fillColor=#fad7ac;strokeColor=#b46504;fontSize=11;align=left;fontColor=default;whiteSpace=wrap;fontStyle=0;sketch=1;hachureGap=4;pointerEvents=0;fontFamily=Architects Daughter;fontSource=https%3A%2F%2Ffonts.googleapis.com%2Fcss%3Ffamily%3DArchitects%2BDaughter;jiggle=2;curveFitting=1;verticalAlign=middle;spacingLeft=80;spacingRight=10;labelBackgroundColor=none;autosize=1;gradientColor=none;strokeWidth=1;" parent="1" vertex="1">
          <mxGeometry x="430" y="110" width="550" height="60" as="geometry" />
        </mxCell>
        <mxCell id="d5cgYtf_v9CHug801hoq-222" value="" style="group" parent="1" vertex="1" connectable="0">
          <mxGeometry x="430" y="169" width="550" height="60" as="geometry" />
        </mxCell>
        <mxCell id="d5cgYtf_v9CHug801hoq-218" value="&lt;font style=&quot;font-size: 16px;&quot;&gt;Dr. John Doe&lt;/font&gt;&lt;div&gt;&lt;font style=&quot;font-size: 16px; color: rgb(102, 102, 102);&quot;&gt;Taxidermy; Basket Weaving; Workaholic; GREGGS;&lt;/font&gt;&lt;/div&gt;" style="html=1;fillColor=#fad7ac;strokeColor=#b46504;fontSize=11;align=left;fontColor=default;whiteSpace=wrap;fontStyle=0;sketch=1;hachureGap=4;pointerEvents=0;fontFamily=Architects Daughter;fontSource=https%3A%2F%2Ffonts.googleapis.com%2Fcss%3Ffamily%3DArchitects%2BDaughter;jiggle=2;curveFitting=1;verticalAlign=middle;spacingLeft=80;spacingRight=10;labelBackgroundColor=none;autosize=1;gradientColor=none;strokeWidth=1;" parent="d5cgYtf_v9CHug801hoq-222" vertex="1">
          <mxGeometry width="550" height="60" as="geometry" />
        </mxCell>
        <mxCell id="d5cgYtf_v9CHug801hoq-220" value="" style="shape=mxgraph.ios7.icons.user;fillColor=#fad7ac;strokeColor=#b46504;sketch=1;hachureGap=4;pointerEvents=0;fontFamily=Architects Daughter;fontSource=https%3A%2F%2Ffonts.googleapis.com%2Fcss%3Ffamily%3DArchitects%2BDaughter;fontSize=11;jiggle=2;curveFitting=1;align=center;verticalAlign=middle;spacingLeft=10;spacingRight=10;fontColor=default;fontStyle=0;labelBackgroundColor=none;autosize=1;gradientColor=none;strokeWidth=2;" parent="d5cgYtf_v9CHug801hoq-222" vertex="1">
          <mxGeometry x="10" y="11" width="50" height="40" as="geometry" />
        </mxCell>
        <mxCell id="d5cgYtf_v9CHug801hoq-251" value="&lt;font style=&quot;font-size: 25px;&quot;&gt;...&lt;/font&gt;" style="shape=ellipse;fillColor=#fad7ac;strokeColor=#b46504;fontColor=default;align=center;verticalAlign=middle;whiteSpace=wrap;fontSize=11;fontStyle=0;html=1;sketch=1;hachureGap=4;pointerEvents=0;fontFamily=Architects Daughter;fontSource=https%3A%2F%2Ffonts.googleapis.com%2Fcss%3Ffamily%3DArchitects%2BDaughter;jiggle=2;curveFitting=1;spacingLeft=10;spacingRight=10;labelBackgroundColor=none;autosize=1;gradientColor=none;strokeWidth=2;" parent="d5cgYtf_v9CHug801hoq-222" vertex="1">
          <mxGeometry x="490" y="10" width="50" height="40" as="geometry" />
        </mxCell>
        <mxCell id="d5cgYtf_v9CHug801hoq-223" value="" style="group" parent="1" vertex="1" connectable="0">
          <mxGeometry x="430" y="229" width="550" height="61" as="geometry" />
        </mxCell>
        <mxCell id="d5cgYtf_v9CHug801hoq-219" value="&lt;div&gt;&lt;font style=&quot;font-size: 16px;&quot;&gt;&lt;b&gt;.........&lt;/b&gt;&lt;/font&gt;&lt;/div&gt;&lt;div&gt;&lt;font style=&quot;font-size: 16px;&quot;&gt;&lt;b&gt;.........&lt;/b&gt;&lt;/font&gt;&lt;/div&gt;" style="html=1;fillColor=#fad7ac;strokeColor=#b46504;fontSize=11;align=left;fontColor=default;whiteSpace=wrap;fontStyle=0;sketch=1;hachureGap=4;pointerEvents=0;fontFamily=Architects Daughter;fontSource=https%3A%2F%2Ffonts.googleapis.com%2Fcss%3Ffamily%3DArchitects%2BDaughter;jiggle=2;curveFitting=1;verticalAlign=middle;spacingLeft=80;spacingRight=10;labelBackgroundColor=none;autosize=1;gradientColor=none;strokeWidth=1;" parent="d5cgYtf_v9CHug801hoq-223" vertex="1">
          <mxGeometry width="550" height="61" as="geometry" />
        </mxCell>
        <mxCell id="d5cgYtf_v9CHug801hoq-221" value="" style="shape=mxgraph.ios7.icons.user;fillColor=#fad7ac;strokeColor=#b46504;sketch=1;hachureGap=4;pointerEvents=0;fontFamily=Architects Daughter;fontSource=https%3A%2F%2Ffonts.googleapis.com%2Fcss%3Ffamily%3DArchitects%2BDaughter;fontSize=11;jiggle=2;curveFitting=1;align=center;verticalAlign=middle;spacingLeft=10;spacingRight=10;fontColor=default;fontStyle=0;labelBackgroundColor=none;autosize=1;gradientColor=none;strokeWidth=2;" parent="d5cgYtf_v9CHug801hoq-223" vertex="1">
          <mxGeometry x="10" y="10" width="50" height="40" as="geometry" />
        </mxCell>
        <mxCell id="d5cgYtf_v9CHug801hoq-254" value="&lt;font style=&quot;font-size: 25px;&quot;&gt;...&lt;/font&gt;" style="shape=ellipse;fillColor=#fad7ac;strokeColor=#b46504;fontColor=default;align=center;verticalAlign=middle;whiteSpace=wrap;fontSize=11;fontStyle=0;html=1;sketch=1;hachureGap=4;pointerEvents=0;fontFamily=Architects Daughter;fontSource=https%3A%2F%2Ffonts.googleapis.com%2Fcss%3Ffamily%3DArchitects%2BDaughter;jiggle=2;curveFitting=1;spacingLeft=10;spacingRight=10;labelBackgroundColor=none;autosize=1;gradientColor=none;strokeWidth=2;" parent="d5cgYtf_v9CHug801hoq-223" vertex="1">
          <mxGeometry x="490" y="10" width="50" height="40" as="geometry" />
        </mxCell>
        <mxCell id="d5cgYtf_v9CHug801hoq-224" value="" style="group" parent="1" vertex="1" connectable="0">
          <mxGeometry x="430" y="290" width="550" height="61" as="geometry" />
        </mxCell>
        <mxCell id="d5cgYtf_v9CHug801hoq-225" value="&lt;div&gt;&lt;font style=&quot;font-size: 16px;&quot;&gt;&lt;b&gt;.........&lt;/b&gt;&lt;/font&gt;&lt;/div&gt;&lt;div&gt;&lt;font style=&quot;font-size: 16px;&quot;&gt;&lt;b&gt;.........&lt;/b&gt;&lt;/font&gt;&lt;/div&gt;" style="html=1;fillColor=#fad7ac;strokeColor=#b46504;fontSize=11;align=left;fontColor=default;whiteSpace=wrap;fontStyle=0;sketch=1;hachureGap=4;pointerEvents=0;fontFamily=Architects Daughter;fontSource=https%3A%2F%2Ffonts.googleapis.com%2Fcss%3Ffamily%3DArchitects%2BDaughter;jiggle=2;curveFitting=1;verticalAlign=middle;spacingLeft=80;spacingRight=10;labelBackgroundColor=none;autosize=1;gradientColor=none;strokeWidth=1;" parent="d5cgYtf_v9CHug801hoq-224" vertex="1">
          <mxGeometry width="550" height="61" as="geometry" />
        </mxCell>
        <mxCell id="d5cgYtf_v9CHug801hoq-226" value="" style="shape=mxgraph.ios7.icons.user;fillColor=#fad7ac;strokeColor=#b46504;sketch=1;hachureGap=4;pointerEvents=0;fontFamily=Architects Daughter;fontSource=https%3A%2F%2Ffonts.googleapis.com%2Fcss%3Ffamily%3DArchitects%2BDaughter;fontSize=11;jiggle=2;curveFitting=1;align=center;verticalAlign=middle;spacingLeft=10;spacingRight=10;fontColor=default;fontStyle=0;labelBackgroundColor=none;autosize=1;gradientColor=none;strokeWidth=2;" parent="d5cgYtf_v9CHug801hoq-224" vertex="1">
          <mxGeometry x="10" y="10" width="50" height="40" as="geometry" />
        </mxCell>
        <mxCell id="d5cgYtf_v9CHug801hoq-255" value="&lt;font style=&quot;font-size: 25px;&quot;&gt;...&lt;/font&gt;" style="shape=ellipse;fillColor=#fad7ac;strokeColor=#b46504;fontColor=default;align=center;verticalAlign=middle;whiteSpace=wrap;fontSize=11;fontStyle=0;html=1;sketch=1;hachureGap=4;pointerEvents=0;fontFamily=Architects Daughter;fontSource=https%3A%2F%2Ffonts.googleapis.com%2Fcss%3Ffamily%3DArchitects%2BDaughter;jiggle=2;curveFitting=1;spacingLeft=10;spacingRight=10;labelBackgroundColor=none;autosize=1;gradientColor=none;strokeWidth=2;" parent="d5cgYtf_v9CHug801hoq-224" vertex="1">
          <mxGeometry x="490" y="10" width="50" height="40" as="geometry" />
        </mxCell>
        <mxCell id="d5cgYtf_v9CHug801hoq-227" value="" style="group" parent="1" vertex="1" connectable="0">
          <mxGeometry x="430" y="351" width="550" height="61" as="geometry" />
        </mxCell>
        <mxCell id="d5cgYtf_v9CHug801hoq-228" value="&lt;div&gt;&lt;font style=&quot;font-size: 16px;&quot;&gt;&lt;b&gt;.........&lt;/b&gt;&lt;/font&gt;&lt;/div&gt;&lt;div&gt;&lt;font style=&quot;font-size: 16px;&quot;&gt;&lt;b&gt;.........&lt;/b&gt;&lt;/font&gt;&lt;/div&gt;" style="html=1;fillColor=#fad7ac;strokeColor=#b46504;fontSize=11;align=left;fontColor=default;whiteSpace=wrap;fontStyle=0;sketch=1;hachureGap=4;pointerEvents=0;fontFamily=Architects Daughter;fontSource=https%3A%2F%2Ffonts.googleapis.com%2Fcss%3Ffamily%3DArchitects%2BDaughter;jiggle=2;curveFitting=1;verticalAlign=middle;spacingLeft=80;spacingRight=10;labelBackgroundColor=none;autosize=1;gradientColor=none;strokeWidth=1;" parent="d5cgYtf_v9CHug801hoq-227" vertex="1">
          <mxGeometry width="550" height="61" as="geometry" />
        </mxCell>
        <mxCell id="d5cgYtf_v9CHug801hoq-229" value="" style="shape=mxgraph.ios7.icons.user;fillColor=#fad7ac;strokeColor=#b46504;sketch=1;hachureGap=4;pointerEvents=0;fontFamily=Architects Daughter;fontSource=https%3A%2F%2Ffonts.googleapis.com%2Fcss%3Ffamily%3DArchitects%2BDaughter;fontSize=11;jiggle=2;curveFitting=1;align=center;verticalAlign=middle;spacingLeft=10;spacingRight=10;fontColor=default;fontStyle=0;labelBackgroundColor=none;autosize=1;gradientColor=none;strokeWidth=2;" parent="d5cgYtf_v9CHug801hoq-227" vertex="1">
          <mxGeometry x="10" y="10" width="50" height="40" as="geometry" />
        </mxCell>
        <mxCell id="d5cgYtf_v9CHug801hoq-256" value="&lt;font style=&quot;font-size: 25px;&quot;&gt;...&lt;/font&gt;" style="shape=ellipse;fillColor=#fad7ac;strokeColor=#b46504;fontColor=default;align=center;verticalAlign=middle;whiteSpace=wrap;fontSize=11;fontStyle=0;html=1;sketch=1;hachureGap=4;pointerEvents=0;fontFamily=Architects Daughter;fontSource=https%3A%2F%2Ffonts.googleapis.com%2Fcss%3Ffamily%3DArchitects%2BDaughter;jiggle=2;curveFitting=1;spacingLeft=10;spacingRight=10;labelBackgroundColor=none;autosize=1;gradientColor=none;strokeWidth=2;" parent="d5cgYtf_v9CHug801hoq-227" vertex="1">
          <mxGeometry x="490" y="10.5" width="50" height="40" as="geometry" />
        </mxCell>
        <mxCell id="d5cgYtf_v9CHug801hoq-230" value="&lt;font style=&quot;font-size: 21px;&quot;&gt;1&lt;/font&gt;" style="html=1;fillColor=#fad7ac;strokeColor=#b46504;fontSize=11;align=center;fontColor=default;whiteSpace=wrap;sketch=1;hachureGap=4;pointerEvents=0;fontFamily=Architects Daughter;fontSource=https%3A%2F%2Ffonts.googleapis.com%2Fcss%3Ffamily%3DArchitects%2BDaughter;jiggle=2;curveFitting=1;verticalAlign=middle;spacingLeft=10;spacingRight=10;fontStyle=0;labelBackgroundColor=none;autosize=1;gradientColor=none;" parent="1" vertex="1">
          <mxGeometry x="310" y="170" width="60" height="60" as="geometry" />
        </mxCell>
        <mxCell id="d5cgYtf_v9CHug801hoq-234" value="&lt;font style=&quot;font-size: 21px;&quot;&gt;306&lt;/font&gt;" style="html=1;fillColor=#fad7ac;strokeColor=#b46504;fontSize=11;align=center;fontColor=default;whiteSpace=wrap;sketch=1;hachureGap=4;pointerEvents=0;fontFamily=Architects Daughter;fontSource=https%3A%2F%2Ffonts.googleapis.com%2Fcss%3Ffamily%3DArchitects%2BDaughter;jiggle=2;curveFitting=1;verticalAlign=middle;spacingLeft=10;spacingRight=10;fontStyle=0;labelBackgroundColor=none;autosize=1;gradientColor=none;" parent="1" vertex="1">
          <mxGeometry x="370" y="170" width="60" height="60" as="geometry" />
        </mxCell>
        <mxCell id="d5cgYtf_v9CHug801hoq-235" value="&lt;font style=&quot;font-size: 21px;&quot;&gt;2&lt;/font&gt;" style="html=1;fillColor=#fad7ac;strokeColor=#b46504;fontSize=11;align=center;fontColor=default;whiteSpace=wrap;sketch=1;hachureGap=4;pointerEvents=0;fontFamily=Architects Daughter;fontSource=https%3A%2F%2Ffonts.googleapis.com%2Fcss%3Ffamily%3DArchitects%2BDaughter;jiggle=2;curveFitting=1;verticalAlign=middle;spacingLeft=10;spacingRight=10;fontStyle=0;labelBackgroundColor=none;autosize=1;gradientColor=none;" parent="1" vertex="1">
          <mxGeometry x="310" y="230" width="60" height="60" as="geometry" />
        </mxCell>
        <mxCell id="d5cgYtf_v9CHug801hoq-236" value="&lt;font style=&quot;font-size: 21px;&quot;&gt;156&lt;/font&gt;" style="html=1;fillColor=#fad7ac;strokeColor=#b46504;fontSize=11;align=center;fontColor=default;whiteSpace=wrap;sketch=1;hachureGap=4;pointerEvents=0;fontFamily=Architects Daughter;fontSource=https%3A%2F%2Ffonts.googleapis.com%2Fcss%3Ffamily%3DArchitects%2BDaughter;jiggle=2;curveFitting=1;verticalAlign=middle;spacingLeft=10;spacingRight=10;fontStyle=0;labelBackgroundColor=none;autosize=1;gradientColor=none;" parent="1" vertex="1">
          <mxGeometry x="370" y="230" width="60" height="60" as="geometry" />
        </mxCell>
        <mxCell id="d5cgYtf_v9CHug801hoq-237" value="&lt;font style=&quot;font-size: 21px;&quot;&gt;3&lt;/font&gt;" style="html=1;fillColor=#fad7ac;strokeColor=#b46504;fontSize=11;align=center;fontColor=default;whiteSpace=wrap;sketch=1;hachureGap=4;pointerEvents=0;fontFamily=Architects Daughter;fontSource=https%3A%2F%2Ffonts.googleapis.com%2Fcss%3Ffamily%3DArchitects%2BDaughter;jiggle=2;curveFitting=1;verticalAlign=middle;spacingLeft=10;spacingRight=10;fontStyle=0;labelBackgroundColor=none;autosize=1;gradientColor=none;" parent="1" vertex="1">
          <mxGeometry x="310" y="290" width="60" height="60" as="geometry" />
        </mxCell>
        <mxCell id="d5cgYtf_v9CHug801hoq-238" value="&lt;font style=&quot;font-size: 21px;&quot;&gt;104&lt;/font&gt;" style="html=1;fillColor=#fad7ac;strokeColor=#b46504;fontSize=11;align=center;fontColor=default;whiteSpace=wrap;sketch=1;hachureGap=4;pointerEvents=0;fontFamily=Architects Daughter;fontSource=https%3A%2F%2Ffonts.googleapis.com%2Fcss%3Ffamily%3DArchitects%2BDaughter;jiggle=2;curveFitting=1;verticalAlign=middle;spacingLeft=10;spacingRight=10;fontStyle=0;labelBackgroundColor=none;autosize=1;gradientColor=none;" parent="1" vertex="1">
          <mxGeometry x="370" y="290" width="60" height="60" as="geometry" />
        </mxCell>
        <mxCell id="d5cgYtf_v9CHug801hoq-239" value="&lt;font style=&quot;font-size: 21px;&quot;&gt;4&lt;/font&gt;" style="html=1;fillColor=#fad7ac;strokeColor=#b46504;fontSize=11;align=center;fontColor=default;whiteSpace=wrap;sketch=1;hachureGap=4;pointerEvents=0;fontFamily=Architects Daughter;fontSource=https%3A%2F%2Ffonts.googleapis.com%2Fcss%3Ffamily%3DArchitects%2BDaughter;jiggle=2;curveFitting=1;verticalAlign=middle;spacingLeft=10;spacingRight=10;fontStyle=0;labelBackgroundColor=none;autosize=1;gradientColor=none;" parent="1" vertex="1">
          <mxGeometry x="310" y="350" width="60" height="60" as="geometry" />
        </mxCell>
        <mxCell id="d5cgYtf_v9CHug801hoq-240" value="&lt;font style=&quot;font-size: 21px;&quot;&gt;103&lt;/font&gt;" style="html=1;fillColor=#fad7ac;strokeColor=#b46504;fontSize=11;align=center;fontColor=default;whiteSpace=wrap;sketch=1;hachureGap=4;pointerEvents=0;fontFamily=Architects Daughter;fontSource=https%3A%2F%2Ffonts.googleapis.com%2Fcss%3Ffamily%3DArchitects%2BDaughter;jiggle=2;curveFitting=1;verticalAlign=middle;spacingLeft=10;spacingRight=10;fontStyle=0;labelBackgroundColor=none;autosize=1;gradientColor=none;" parent="1" vertex="1">
          <mxGeometry x="370" y="350" width="60" height="60" as="geometry" />
        </mxCell>
        <mxCell id="d5cgYtf_v9CHug801hoq-241" value="" style="group" parent="1" vertex="1" connectable="0">
          <mxGeometry x="430" y="412" width="550" height="61" as="geometry" />
        </mxCell>
        <mxCell id="d5cgYtf_v9CHug801hoq-242" value="&lt;div&gt;&lt;font style=&quot;font-size: 16px;&quot;&gt;&lt;b&gt;.........&lt;/b&gt;&lt;/font&gt;&lt;/div&gt;&lt;div&gt;&lt;font style=&quot;font-size: 16px;&quot;&gt;&lt;b&gt;.........&lt;/b&gt;&lt;/font&gt;&lt;/div&gt;" style="html=1;fillColor=#fad7ac;strokeColor=#b46504;fontSize=11;align=left;fontColor=default;whiteSpace=wrap;fontStyle=0;sketch=1;hachureGap=4;pointerEvents=0;fontFamily=Architects Daughter;fontSource=https%3A%2F%2Ffonts.googleapis.com%2Fcss%3Ffamily%3DArchitects%2BDaughter;jiggle=2;curveFitting=1;verticalAlign=middle;spacingLeft=80;spacingRight=10;labelBackgroundColor=none;autosize=1;gradientColor=none;strokeWidth=1;" parent="d5cgYtf_v9CHug801hoq-241" vertex="1">
          <mxGeometry width="550" height="61" as="geometry" />
        </mxCell>
        <mxCell id="d5cgYtf_v9CHug801hoq-243" value="" style="shape=mxgraph.ios7.icons.user;fillColor=#fad7ac;strokeColor=#b46504;sketch=1;hachureGap=4;pointerEvents=0;fontFamily=Architects Daughter;fontSource=https%3A%2F%2Ffonts.googleapis.com%2Fcss%3Ffamily%3DArchitects%2BDaughter;fontSize=11;jiggle=2;curveFitting=1;align=center;verticalAlign=middle;spacingLeft=10;spacingRight=10;fontColor=default;fontStyle=0;labelBackgroundColor=none;autosize=1;gradientColor=none;strokeWidth=2;" parent="d5cgYtf_v9CHug801hoq-241" vertex="1">
          <mxGeometry x="10" y="10" width="50" height="40" as="geometry" />
        </mxCell>
        <mxCell id="d5cgYtf_v9CHug801hoq-257" value="&lt;font style=&quot;font-size: 25px;&quot;&gt;...&lt;/font&gt;" style="shape=ellipse;fillColor=#fad7ac;strokeColor=#b46504;fontColor=default;align=center;verticalAlign=middle;whiteSpace=wrap;fontSize=11;fontStyle=0;html=1;sketch=1;hachureGap=4;pointerEvents=0;fontFamily=Architects Daughter;fontSource=https%3A%2F%2Ffonts.googleapis.com%2Fcss%3Ffamily%3DArchitects%2BDaughter;jiggle=2;curveFitting=1;spacingLeft=10;spacingRight=10;labelBackgroundColor=none;autosize=1;gradientColor=none;strokeWidth=2;" parent="d5cgYtf_v9CHug801hoq-241" vertex="1">
          <mxGeometry x="490" y="10.5" width="50" height="40" as="geometry" />
        </mxCell>
        <mxCell id="d5cgYtf_v9CHug801hoq-244" value="&lt;font style=&quot;font-size: 21px;&quot;&gt;87&lt;/font&gt;" style="html=1;fillColor=#fad7ac;strokeColor=#b46504;fontSize=11;align=center;fontColor=default;whiteSpace=wrap;sketch=1;hachureGap=4;pointerEvents=0;fontFamily=Architects Daughter;fontSource=https%3A%2F%2Ffonts.googleapis.com%2Fcss%3Ffamily%3DArchitects%2BDaughter;jiggle=2;curveFitting=1;verticalAlign=middle;spacingLeft=10;spacingRight=10;fontStyle=0;labelBackgroundColor=none;autosize=1;gradientColor=none;" parent="1" vertex="1">
          <mxGeometry x="370" y="410" width="60" height="60" as="geometry" />
        </mxCell>
        <mxCell id="d5cgYtf_v9CHug801hoq-246" value="&lt;font style=&quot;font-size: 21px;&quot;&gt;5&lt;/font&gt;" style="html=1;fillColor=#fad7ac;strokeColor=#b46504;fontSize=11;align=center;fontColor=default;whiteSpace=wrap;sketch=1;hachureGap=4;pointerEvents=0;fontFamily=Architects Daughter;fontSource=https%3A%2F%2Ffonts.googleapis.com%2Fcss%3Ffamily%3DArchitects%2BDaughter;jiggle=2;curveFitting=1;verticalAlign=middle;spacingLeft=10;spacingRight=10;fontStyle=0;labelBackgroundColor=none;autosize=1;gradientColor=none;" parent="1" vertex="1">
          <mxGeometry x="310" y="410" width="60" height="60" as="geometry" />
        </mxCell>
      </root>
    </mxGraphModel>
  </diagram>
</mxfile>
